<mxfile host="app.diagrams.net" modified="2021-05-30T02:24:41.995Z" agent="5.0 (Windows NT 10.0; Win64; x64) AppleWebKit/537.36 (KHTML, like Gecko) Chrome/83.0.4103.97 Safari/537.36" etag="ByQRoX42rRlDNoI56D6M" version="14.7.0" type="github">
  <diagram id="cMwjQ6FWazVOwl1mSE3-" name="Page-1">
    <mxGraphModel dx="2062" dy="1122" grid="1" gridSize="10" guides="1" tooltips="1" connect="1" arrows="1" fold="1" page="1" pageScale="1" pageWidth="827" pageHeight="1169" math="0" shadow="0">
      <root>
        <mxCell id="0" />
        <mxCell id="1" parent="0" />
        <mxCell id="fpQUAOE5cDNvlmeoXUHq-28" value="" style="edgeStyle=orthogonalEdgeStyle;rounded=0;orthogonalLoop=1;jettySize=auto;html=1;fontSize=38;" edge="1" parent="1" source="fpQUAOE5cDNvlmeoXUHq-1" target="fpQUAOE5cDNvlmeoXUHq-27">
          <mxGeometry relative="1" as="geometry" />
        </mxCell>
        <mxCell id="fpQUAOE5cDNvlmeoXUHq-1" value="SpringApplication.run()" style="rounded=0;whiteSpace=wrap;html=1;fillColor=#dae8fc;strokeColor=#6c8ebf;" vertex="1" parent="1">
          <mxGeometry x="149" y="60" width="150" height="60" as="geometry" />
        </mxCell>
        <mxCell id="fpQUAOE5cDNvlmeoXUHq-5" value="" style="edgeStyle=orthogonalEdgeStyle;rounded=0;orthogonalLoop=1;jettySize=auto;html=1;" edge="1" parent="1" source="fpQUAOE5cDNvlmeoXUHq-2" target="fpQUAOE5cDNvlmeoXUHq-4">
          <mxGeometry relative="1" as="geometry" />
        </mxCell>
        <mxCell id="fpQUAOE5cDNvlmeoXUHq-2" value="SpringRunListerners.starting()" style="whiteSpace=wrap;html=1;rounded=0;fillColor=#dae8fc;strokeColor=#6c8ebf;" vertex="1" parent="1">
          <mxGeometry x="131.5" y="290" width="185" height="70" as="geometry" />
        </mxCell>
        <mxCell id="fpQUAOE5cDNvlmeoXUHq-7" value="" style="edgeStyle=orthogonalEdgeStyle;rounded=0;orthogonalLoop=1;jettySize=auto;html=1;" edge="1" parent="1" source="fpQUAOE5cDNvlmeoXUHq-4" target="fpQUAOE5cDNvlmeoXUHq-6">
          <mxGeometry relative="1" as="geometry" />
        </mxCell>
        <mxCell id="fpQUAOE5cDNvlmeoXUHq-4" value="listeners.environmentPrepared()" style="whiteSpace=wrap;html=1;rounded=0;fillColor=#dae8fc;strokeColor=#6c8ebf;" vertex="1" parent="1">
          <mxGeometry x="131.5" y="450" width="185" height="75" as="geometry" />
        </mxCell>
        <mxCell id="fpQUAOE5cDNvlmeoXUHq-9" value="" style="edgeStyle=orthogonalEdgeStyle;rounded=0;orthogonalLoop=1;jettySize=auto;html=1;" edge="1" parent="1" source="fpQUAOE5cDNvlmeoXUHq-6" target="fpQUAOE5cDNvlmeoXUHq-8">
          <mxGeometry relative="1" as="geometry" />
        </mxCell>
        <mxCell id="fpQUAOE5cDNvlmeoXUHq-6" value="printBanner()" style="whiteSpace=wrap;html=1;rounded=0;fillColor=#dae8fc;strokeColor=#6c8ebf;" vertex="1" parent="1">
          <mxGeometry x="164" y="608.75" width="120" height="60" as="geometry" />
        </mxCell>
        <mxCell id="fpQUAOE5cDNvlmeoXUHq-11" value="" style="edgeStyle=orthogonalEdgeStyle;rounded=0;orthogonalLoop=1;jettySize=auto;html=1;" edge="1" parent="1" source="fpQUAOE5cDNvlmeoXUHq-8" target="fpQUAOE5cDNvlmeoXUHq-10">
          <mxGeometry relative="1" as="geometry" />
        </mxCell>
        <mxCell id="fpQUAOE5cDNvlmeoXUHq-8" value="根据webApplicationType创建ApplicationContext" style="whiteSpace=wrap;html=1;rounded=0;fillColor=#dae8fc;strokeColor=#6c8ebf;" vertex="1" parent="1">
          <mxGeometry x="164" y="748.75" width="120" height="60" as="geometry" />
        </mxCell>
        <mxCell id="fpQUAOE5cDNvlmeoXUHq-13" value="" style="edgeStyle=orthogonalEdgeStyle;rounded=0;orthogonalLoop=1;jettySize=auto;html=1;" edge="1" parent="1" source="fpQUAOE5cDNvlmeoXUHq-10" target="fpQUAOE5cDNvlmeoXUHq-12">
          <mxGeometry relative="1" as="geometry" />
        </mxCell>
        <mxCell id="fpQUAOE5cDNvlmeoXUHq-10" value="listener.contextPrepared()" style="whiteSpace=wrap;html=1;rounded=0;fillColor=#dae8fc;strokeColor=#6c8ebf;" vertex="1" parent="1">
          <mxGeometry x="145.75" y="891.25" width="156.5" height="57.5" as="geometry" />
        </mxCell>
        <mxCell id="fpQUAOE5cDNvlmeoXUHq-15" value="" style="edgeStyle=orthogonalEdgeStyle;rounded=0;orthogonalLoop=1;jettySize=auto;html=1;" edge="1" parent="1" source="fpQUAOE5cDNvlmeoXUHq-12" target="fpQUAOE5cDNvlmeoXUHq-14">
          <mxGeometry relative="1" as="geometry" />
        </mxCell>
        <mxCell id="fpQUAOE5cDNvlmeoXUHq-12" value="listener.contextLoaded(context)" style="whiteSpace=wrap;html=1;rounded=0;fillColor=#dae8fc;strokeColor=#6c8ebf;" vertex="1" parent="1">
          <mxGeometry x="164" y="1028.75" width="120" height="60" as="geometry" />
        </mxCell>
        <mxCell id="fpQUAOE5cDNvlmeoXUHq-17" value="" style="edgeStyle=orthogonalEdgeStyle;rounded=0;orthogonalLoop=1;jettySize=auto;html=1;" edge="1" parent="1" source="fpQUAOE5cDNvlmeoXUHq-14" target="fpQUAOE5cDNvlmeoXUHq-16">
          <mxGeometry relative="1" as="geometry" />
        </mxCell>
        <mxCell id="fpQUAOE5cDNvlmeoXUHq-14" value="refreshContext()" style="whiteSpace=wrap;html=1;rounded=0;fillColor=#dae8fc;strokeColor=#6c8ebf;" vertex="1" parent="1">
          <mxGeometry x="362.25" y="1028.75" width="120" height="60" as="geometry" />
        </mxCell>
        <mxCell id="fpQUAOE5cDNvlmeoXUHq-19" value="" style="edgeStyle=orthogonalEdgeStyle;rounded=0;orthogonalLoop=1;jettySize=auto;html=1;" edge="1" parent="1" source="fpQUAOE5cDNvlmeoXUHq-16" target="fpQUAOE5cDNvlmeoXUHq-18">
          <mxGeometry relative="1" as="geometry" />
        </mxCell>
        <mxCell id="fpQUAOE5cDNvlmeoXUHq-16" value="afterRefresh()" style="whiteSpace=wrap;html=1;rounded=0;fillColor=#dae8fc;strokeColor=#6c8ebf;" vertex="1" parent="1">
          <mxGeometry x="362.25" y="888.75" width="120" height="60" as="geometry" />
        </mxCell>
        <mxCell id="fpQUAOE5cDNvlmeoXUHq-21" value="" style="edgeStyle=orthogonalEdgeStyle;rounded=0;orthogonalLoop=1;jettySize=auto;html=1;" edge="1" parent="1" source="fpQUAOE5cDNvlmeoXUHq-18" target="fpQUAOE5cDNvlmeoXUHq-20">
          <mxGeometry relative="1" as="geometry" />
        </mxCell>
        <mxCell id="fpQUAOE5cDNvlmeoXUHq-18" value="listener.started()" style="whiteSpace=wrap;html=1;rounded=0;fillColor=#dae8fc;strokeColor=#6c8ebf;" vertex="1" parent="1">
          <mxGeometry x="362.25" y="748.75" width="120" height="60" as="geometry" />
        </mxCell>
        <mxCell id="fpQUAOE5cDNvlmeoXUHq-20" value="callRunners()" style="whiteSpace=wrap;html=1;rounded=0;fillColor=#dae8fc;strokeColor=#6c8ebf;" vertex="1" parent="1">
          <mxGeometry x="362.25" y="608.75" width="120" height="60" as="geometry" />
        </mxCell>
        <mxCell id="fpQUAOE5cDNvlmeoXUHq-22" value="SpringBoot启动流程" style="text;html=1;resizable=0;autosize=1;align=center;verticalAlign=middle;points=[];rounded=0;strokeWidth=2;perimeterSpacing=2;fillColor=#d5e8d4;strokeColor=#82b366;fontSize=38;" vertex="1" parent="1">
          <mxGeometry x="350" y="130" width="360" height="50" as="geometry" />
        </mxCell>
        <mxCell id="fpQUAOE5cDNvlmeoXUHq-29" value="" style="edgeStyle=orthogonalEdgeStyle;rounded=0;orthogonalLoop=1;jettySize=auto;html=1;fontSize=38;" edge="1" parent="1" source="fpQUAOE5cDNvlmeoXUHq-27" target="fpQUAOE5cDNvlmeoXUHq-2">
          <mxGeometry relative="1" as="geometry" />
        </mxCell>
        <mxCell id="fpQUAOE5cDNvlmeoXUHq-27" value="SpringFactoriesLoader收集加载资源META-INFO/spring.factories" style="whiteSpace=wrap;html=1;rounded=0;strokeColor=#6c8ebf;fillColor=#dae8fc;" vertex="1" parent="1">
          <mxGeometry x="164" y="180" width="120" height="60" as="geometry" />
        </mxCell>
      </root>
    </mxGraphModel>
  </diagram>
</mxfile>
